<svg width="40" height="40" viewBox="0 0 40 40" fill="none" xmlns="http://www.w3.org/2000/svg">
<g id="icon_header" opacity="0.3">
<path id="Rectangle 39901" d="M6.06066 34.3448C5.47487 33.7591 5.46329 32.8209 6.03479 32.2494L32.2495 6.0347C32.821 5.4632 33.7591 5.47478 34.3449 6.06057C34.9307 6.64636 34.9423 7.58452 34.3708 8.15602L8.15611 34.3707C7.58461 34.9422 6.64645 34.9306 6.06066 34.3448Z" fill="#414141"/>
<path id="Rectangle 39903" d="M6.06043 6.34484C6.64622 5.75905 7.58439 5.74747 8.15588 6.31897L34.3706 32.5337C34.9421 33.1052 34.9305 34.0433 34.3447 34.6291C33.7589 35.2149 32.8208 35.2265 32.2493 34.655L6.03456 8.44029C5.46307 7.86879 5.47465 6.93063 6.06043 6.34484Z" fill="#414141"/>
</g>
</svg>
