<svg width="30" height="31" fill="none" xmlns="http://www.w3.org/2000/svg"><g clip-path="url(#clip0_503_177)"><g clip-path="url(#clip1_503_177)"><path d="M15 .5A14.998 14.998 0 004.395 26.107 14.998 14.998 0 0030 15.5a15.005 15.005 0 00-15-15z" fill="url(#paint0_linear_503_177)"/><path d="M6.79 15.342c4.373-1.905 7.289-3.162 8.746-3.768C19.704 9.84 20.57 9.54 21.133 9.53c.125-.002.401.029.582.174.15.124.192.29.213.407.019.116.044.382.023.59-.225 2.372-1.202 8.128-1.699 10.784-.208 1.125-.623 1.501-1.024 1.538-.872.08-1.533-.575-2.377-1.128-1.32-.866-2.065-1.404-3.347-2.249-1.48-.976-.52-1.512.324-2.389.22-.23 4.06-3.72 4.132-4.037.01-.04.019-.187-.07-.265-.087-.078-.216-.051-.31-.03-.133.03-2.24 1.424-6.328 4.182-.598.41-1.139.611-1.627.6-.534-.01-1.565-.302-2.332-.551-.937-.305-1.685-.467-1.62-.986.034-.27.406-.546 1.117-.828z" fill="#fff"/></g></g><defs><clipPath id="clip0_503_177"><path fill="#fff" transform="translate(0 .5)" d="M0 0h30v30H0z"/></clipPath><clipPath id="clip1_503_177"><path fill="#fff" transform="translate(0 .5)" d="M0 0h30v30H0z"/></clipPath><linearGradient id="paint0_linear_503_177" x1="1500" y1=".5" x2="1500" y2="3000.5" gradientUnits="userSpaceOnUse"><stop stop-color="#2AABEE"/><stop offset="1" stop-color="#229ED9"/></linearGradient></defs></svg>