<svg width="28" height="27" fill="none" xmlns="http://www.w3.org/2000/svg"><path fill-rule="evenodd" clip-rule="evenodd" d="M9.128 17.15c2.321 1.288 3.117 4.14 1.776 6.37-1.34 2.232-4.308 2.996-6.63 1.708-2.32-1.288-3.116-4.14-1.776-6.371 1.34-2.23 4.309-2.995 6.63-1.707z" fill="#fff"/><path d="M8.39 12.52L6.052 1.053h-.035l-2.39 11.469h-.885L0 0h.743l2.425 11.468h.036L5.575 0h.903l2.39 11.468h.035L11.327 0h.744L9.31 12.52h-.92zm4.955 0V0h6.036v.666h-5.293v4.998h4.938v.666h-4.938v5.524h5.452v.667h-6.195zm7.54 0V0h3.398c2.207 0 3.31 1.04 3.31 3.121 0 .819-.21 1.468-.628 1.947-.42.48-.989.766-1.708.859v.035c.885.059 1.563.377 2.035.956.472.579.708 1.312.708 2.2 0 1.053-.322 1.883-.965 2.49-.643.608-1.525.912-2.646.912h-3.504zm.743-6.856h2.425c.85 0 1.528-.21 2.035-.631.508-.421.762-1.058.762-1.912 0-1.683-.826-2.525-2.478-2.525h-2.744v5.068zm0 6.26h2.496c1.062 0 1.85-.219 2.363-.657.513-.439.77-1.16.77-2.166 0-1.894-1.056-2.84-3.169-2.84h-2.46v5.663zM13.495 27V15.916h3.274c.825 0 1.483.233 1.974.699.533.507.8 1.242.8 2.204 0 .756-.194 1.377-.58 1.863-.397.518-.95.812-1.661.885v.031c.846.052 1.436.331 1.77.838.261.414.392 1.05.392 1.91v1.164c0 .59.125 1.086.376 1.49h-.752c-.188-.352-.282-.854-.282-1.506v-1.133c0-.849-.146-1.464-.439-1.847-.344-.435-.945-.652-1.802-.652h-2.412V27h-.658zm.658-5.666h2.1c1.754 0 2.631-.838 2.631-2.515 0-.745-.195-1.327-.587-1.746-.392-.42-.933-.629-1.622-.629h-2.522v4.89zm11.97 1.692l-1.927-6.458h-.032l-1.974 6.458h3.933zM27.313 27l-1.065-3.446h-4.214L20.968 27h-.658l3.478-11.084h.83L27.973 27h-.658z" fill="#A45B3A"/><mask id="a" style="mask-type:luminance" maskUnits="userSpaceOnUse" x="1" y="16" width="10" height="10"><path d="M8.446 17.15c2.322 1.288 3.117 4.14 1.777 6.37-1.34 2.232-4.309 2.996-6.63 1.708-2.321-1.288-3.117-4.14-1.776-6.371 1.34-2.23 4.308-2.995 6.63-1.707z" fill="#fff"/></mask><g mask="url(#a)" fill-rule="evenodd" clip-rule="evenodd" fill="#A45B3A"><path d="M4.089 25.707l1.045.58c.253-.935.905-2.08 1.754-2.633.414-.27 1.05-.822 1.41-1.147.155-.139.321-.286.458-.432 1.452-1.554.907-2.476 1.2-4.156l-.771-.428c-.075.515-.138 1.02-.252 1.56-.124.588-.16 1.048-.506 1.608-.329.533-.73 1.023-1.12 1.504-.2.246-.911 1.418-1.072 1.413-.134-.158.07-.584.149-.79.106-.28.229-.559.348-.84.235-.555.467-1.14.753-1.671.244-.453.431-1.132.595-1.627.067-.2.24-.646.23-.814a2.024 2.024 0 01.103-.771l-.66-.366c-.225 1.056-.262 1.167-.663 2.195-.3.77-.612 1.5-1.011 2.259-.215.407-.449.717-.597 1.15-.129.376-.215.728-.378 1.116-.32.76-.709 1.527-1.015 2.29zm1.554.862l.388.215c.574-.404.533-.561.955-.893.158-.125.358-.25.497-.381.5-.474.305-.434 1.028-.668l1.708-.547.696-1.159-.04.009c-.005 0-.013.003-.019.004l-.384.145c-.284.109-1.204.538-1.28.157-.019-.109 1.67-1.086 1.96-1.529.347-.531.908-1.395 1.21-1.952.142-.261.106-.365.171-.622l-.793-.44c-.164.54-.122.654-.52 1.124-.13.156-.296.344-.398.52-.52.902-1.163 1.79-1.923 2.535-.795.779-1.804.968-2.64 2.305-.25.398-.489.735-.616 1.177zm-6.418-3.561l.81.45c.12-.443.093-.72.15-1.224.033-.29-.024-.161.068-.6.12-.567.305-1.345.467-1.887.181-.605.342-1.827.409-2.478.011-.106-.002-.201.01-.296.028-.236.214-.631.217-.937.005-.403.04-.824.235-1.237.194-.41.26-.883.419-1.29l-.465-.258-.166 1.036c-.161-.113-.161-1.018-.142-1.206l-.575-.32c-.024.515.285 1.308.207 1.828-.03.203-.09.45-.086.64.015.819-.384 1.744-.512 2.59-.062.406-.104.887-.207 1.286-.115.447-.284.862-.375 1.317-.045.221-.036.404-.092.64-.094.39-.35 1.065-.336 1.311.013.218.066.401-.036.635zm3.259 1.808l.953.53c.198-.582.235-.213.589-1.23.142-.41.266-.835.382-1.245.29-1.021.312-1.287.226-2.39-.016-.196-.067-.358-.035-.56.078-.482.351-1.375.494-1.855.123-.413.254-.83.387-1.246.142-.446.171-.806.275-1.233l-.616-.341c-.089.384-.15.783-.237 1.171-.051.223-.021.36-.067.581-.124.606-.354 1.23-.558 1.81-.136.385-.232.81-.33 1.2-.134.531-.113 1.182-.247 1.735a12.044 12.044 0 01-1.216 3.073zm-1.666-.924l1.09.605c.642-.903.669-1.437.918-2.404.135-.526.484-1.885.554-2.36.172-1.183.443-1.393.774-2.402.177-.542.274-1.19.39-1.76.038-.186.059-.42.108-.595l-.6-.333c-.322 1.167-.462 2.243-.82 3.452-.143.486-.515 1.337-.57 1.756-.032.235.021.292-.068.564-.067.202-.142.389-.213.588-.074.21-.085.39-.153.58-.542 1.528-.932 1.467-1.41 2.309zm2.534-9.638l-.706-.391c-.104.337-.161.76-.249 1.111-.09.358-.238.79-.263 1.133-.02.27-.018.862-.107 1.084-.15.377-.229.761-.316 1.139-.175.753-.282 1.512-.62 2.262C.906 21 .666 22.52.895 22.773c.384.058.45-.661.517-.903.216-.783.6-1.417.704-2.188.044-.323.085-.773.196-1.084.135-.377.228-.704.307-1.082l.197-1.083c.095-.367.228-.726.34-1.091.127-.42.13-.693.196-1.088zM7.039 16.3l-.667-.37c-.086.447-.082.82-.226 1.295-.086.283-.373.898-.526 1.365-.166.505-.814 2.329-.356 2.574.201-.037.238-.333.274-.507.09-.431.344-.835.533-1.26.11-.247.123-.384.191-.618.122-.417.28-.824.427-1.238.147-.418.223-.83.35-1.242zm-.323 10.864l.88.489c.22-.273.64-.584.94-.556l1.008-1.678c-.164-.011-.598.14-.791.223-.24.102-.478.224-.716.378-.364.234-1.073.75-1.321 1.144z"/></g></svg>