<svg width="30" height="31" fill="none" xmlns="http://www.w3.org/2000/svg"><g clip-path="url(#clip0_503_172)"><path d="M.64 15.37c0 2.529.663 4.998 1.925 7.175L.52 29.98l7.644-1.996a14.464 14.464 0 006.89 1.747h.007c7.947 0 14.416-6.438 14.42-14.35a14.23 14.23 0 00-4.22-10.154 14.361 14.361 0 00-10.2-4.208C7.111 1.02.643 7.457.64 15.37" fill="url(#paint0_linear_503_172)"/><path d="M.125 15.365c0 2.62.687 5.178 1.994 7.432L0 30.5l7.918-2.067a14.982 14.982 0 007.138 1.81h.007c8.232 0 14.934-6.67 14.937-14.866A14.743 14.743 0 0025.629 4.86 14.877 14.877 0 0015.063.5C6.829.5.129 7.169.126 15.365zm4.716 7.044l-.296-.467a12.283 12.283 0 01-1.898-6.576C2.65 8.553 8.22 3.01 15.067 3.01a12.363 12.363 0 018.778 3.623 12.254 12.254 0 013.633 8.742c-.003 6.813-5.572 12.356-12.415 12.356h-.005a12.444 12.444 0 01-6.32-1.723l-.453-.267-4.699 1.226 1.255-4.56z" fill="url(#paint1_linear_503_172)"/><path d="M11.328 9.15c-.28-.618-.573-.63-.84-.641-.217-.01-.466-.009-.715-.009-.249 0-.653.093-.995.465-.342.372-1.306 1.27-1.306 3.098 0 1.829 1.337 3.595 1.524 3.843.186.248 2.582 4.12 6.375 5.609 3.153 1.238 3.795.991 4.479.93.684-.063 2.208-.9 2.519-1.767.311-.867.311-1.611.218-1.766-.093-.155-.342-.248-.716-.434-.373-.186-2.208-1.085-2.55-1.209-.342-.123-.59-.185-.84.187-.249.371-.963 1.208-1.181 1.456-.218.248-.436.279-.809.093-.373-.186-1.575-.578-3.001-1.844-1.11-.985-1.859-2.201-2.077-2.573-.218-.371-.023-.573.164-.758.168-.166.373-.434.56-.65.186-.218.248-.373.373-.62.124-.248.062-.465-.031-.651s-.819-2.024-1.15-2.758" fill="#fff"/></g><defs><linearGradient id="paint0_linear_503_172" x1="15" y1="29.981" x2="15" y2="1.02" gradientUnits="userSpaceOnUse"><stop stop-color="#1FAF38"/><stop offset="1" stop-color="#60D669"/></linearGradient><linearGradient id="paint1_linear_503_172" x1="15" y1="30.5" x2="15" y2=".5" gradientUnits="userSpaceOnUse"><stop stop-color="#1FAF38"/><stop offset="1" stop-color="#60D669"/></linearGradient><clipPath id="clip0_503_172"><path fill="#fff" transform="translate(0 .5)" d="M0 0h30v30H0z"/></clipPath></defs></svg>