<svg width="30" height="31" viewBox="0 0 30 31" fill="none" xmlns="http://www.w3.org/2000/svg">
<g id="logos:telegram" clip-path="url(#clip0_508_178)">
<path id="Vector" d="M15 0.5C11.0227 0.5 7.20469 2.08133 4.39453 4.89336C1.58148 7.70651 0.000779226 11.5217 0 15.5C0 19.4766 1.58203 23.2946 4.39453 26.1066C7.20469 28.9187 11.0227 30.5 15 30.5C18.9773 30.5 22.7953 28.9187 25.6055 26.1066C28.418 23.2946 30 19.4766 30 15.5C30 11.5234 28.418 7.70539 25.6055 4.89336C22.7953 2.08133 18.9773 0.5 15 0.5Z" fill="url(#paint0_linear_508_178)"/>
<path id="Vector_2" d="M6.78956 15.3416C11.163 13.4366 14.0786 12.1805 15.5364 11.5737C19.7036 9.84101 20.5685 9.54007 21.1333 9.52987C21.2575 9.52788 21.5341 9.55858 21.7146 9.70448C21.8646 9.82753 21.9067 9.99394 21.9278 10.1108C21.9466 10.2275 21.9724 10.4935 21.9513 10.7012C21.7263 13.073 20.7489 18.8288 20.2521 21.4855C20.0435 22.6095 19.6286 22.9864 19.2278 23.0232C18.356 23.1033 17.695 22.4476 16.8513 21.8947C15.5317 21.0291 14.7864 20.4905 13.5044 19.6461C12.0232 18.6701 12.9841 18.1337 13.8278 17.2571C14.0482 17.0276 17.8872 13.5366 17.9599 13.22C17.9692 13.1804 17.9786 13.0327 17.8896 12.9549C17.8028 12.8769 17.6739 12.9036 17.5802 12.9247C17.4466 12.9547 15.3396 14.3487 11.2521 17.1066C10.6544 17.5177 10.113 17.7181 9.6255 17.7076C9.09112 17.6961 8.05987 17.4048 7.29347 17.1559C6.35597 16.8505 5.60831 16.689 5.67394 16.1703C5.70675 15.9003 6.0794 15.624 6.78956 15.3416Z" fill="white"/>
</g>
<defs>
<linearGradient id="paint0_linear_508_178" x1="1500" y1="0.5" x2="1500" y2="3000.5" gradientUnits="userSpaceOnUse">
<stop stop-color="#2AABEE"/>
<stop offset="1" stop-color="#229ED9"/>
</linearGradient>
<clipPath id="clip0_508_178">
<rect width="30" height="30" fill="white" transform="translate(0 0.5)"/>
</clipPath>
</defs>
</svg>
