<svg width="76" height="76" fill="none" xmlns="http://www.w3.org/2000/svg"><rect width="76" height="76" rx="38" fill="#77827A"/><path d="M55.228 18.212A4.72 4.72 0 0158.435 17a4.713 4.713 0 013.187 1.258 4.303 4.303 0 011.376 3.02 4.282 4.282 0 01-1.207 3.085L37.318 53.596a4.6 4.6 0 01-1.493 1.021 4.79 4.79 0 01-3.599.064 4.623 4.623 0 01-1.532-.968l-16.23-15.501a4.405 4.405 0 01-1.066-1.427 4.22 4.22 0 01-.063-3.434 4.383 4.383 0 011.012-1.46 4.622 4.622 0 011.53-.968 4.793 4.793 0 013.595.06 4.607 4.607 0 011.494 1.019l12.843 12.261L55.111 18.34c.039-.045.074-.088.117-.128z" fill="#FFFCF9"/></svg>